<mxfile host="Electron" modified="2024-06-04T15:15:35.034Z" agent="Mozilla/5.0 (X11; Linux x86_64) AppleWebKit/537.36 (KHTML, like Gecko) draw.io/24.2.5 Chrome/120.0.6099.109 Electron/28.1.0 Safari/537.36" etag="SLyagAlqVIbK8OahRuWB" version="24.2.5" type="device">
  <diagram name="Page-1" id="gpCIiAAguJbIhwV_0Obz">
    <mxGraphModel dx="1434" dy="835" grid="1" gridSize="10" guides="1" tooltips="1" connect="1" arrows="1" fold="1" page="1" pageScale="1" pageWidth="850" pageHeight="1100" math="0" shadow="0">
      <root>
        <mxCell id="0" />
        <mxCell id="1" parent="0" />
        <mxCell id="mcJTDxwmSM0p99dnB7Bg-1" value="" style="rounded=1;whiteSpace=wrap;html=1;shadow=0;strokeColor=#6c8ebf;strokeWidth=1;fontFamily=Ubuntu;fontSize=16;fontStyle=0;fillColor=#dae8fc;" vertex="1" parent="1">
          <mxGeometry x="180" y="300" width="320" height="120" as="geometry" />
        </mxCell>
        <mxCell id="mcJTDxwmSM0p99dnB7Bg-2" value="return" style="rounded=1;whiteSpace=wrap;html=1;shadow=0;strokeColor=#264653;strokeWidth=1;fontFamily=Ubuntu;fontSize=16;fontStyle=0;fillColor=#f4a261;" vertex="1" parent="1">
          <mxGeometry x="280" y="320" width="60" height="40" as="geometry" />
        </mxCell>
        <mxCell id="mcJTDxwmSM0p99dnB7Bg-3" value="println(&quot;1&quot;)" style="rounded=1;whiteSpace=wrap;html=1;shadow=0;strokeColor=#264653;strokeWidth=1;fontFamily=Ubuntu;fontSize=16;fontStyle=0;fillColor=#f4a261;" vertex="1" parent="1">
          <mxGeometry x="340" y="320" width="100" height="40" as="geometry" />
        </mxCell>
        <mxCell id="mcJTDxwmSM0p99dnB7Bg-4" value="if" style="rounded=1;whiteSpace=wrap;html=1;shadow=0;strokeColor=#264653;strokeWidth=1;fontFamily=Ubuntu;fontSize=16;fontStyle=0;fillColor=#e9c46a;" vertex="1" parent="1">
          <mxGeometry x="200" y="320" width="60" height="40" as="geometry" />
        </mxCell>
      </root>
    </mxGraphModel>
  </diagram>
</mxfile>
